<svg width="44" height="44" viewBox="0 0 44 44" fill="none" xmlns="http://www.w3.org/2000/svg">
<path d="M35.8393 22.8555V22.8418H35.5727H34.7544C28.2921 22.8418 27.5608 12.0306 27.5588 11.9279V10.8436V5.4524C27.5588 3.99637 26.9893 2.62783 25.9596 1.6032C24.9309 0.569465 23.5624 0 22.1064 0C19.0997 0 16.654 2.44577 16.654 5.4524V11.8849C16.6044 12.4913 15.6622 22.8423 9.45776 22.8423H8.63998H8.37346V22.856C5.75473 22.9956 3.66602 25.1642 3.66602 27.8168V34.2802C3.66602 34.879 4.15153 35.365 4.75032 35.365C5.34912 35.365 5.83463 34.8795 5.83463 34.2802V27.8168C5.83463 26.3597 6.95131 25.1601 8.37295 25.0256V39.026C8.37295 41.7687 10.6043 44 13.3469 44H30.8643C33.6069 44 35.8382 41.7682 35.8382 39.026V25.0251C37.2604 25.1596 38.3766 26.3597 38.3766 27.8163V34.2797C38.3766 34.8784 38.8621 35.3645 39.4614 35.3645C40.0602 35.3645 40.5462 34.879 40.5462 34.2797V27.8163C40.5467 25.1637 38.4575 22.9956 35.8393 22.8555ZM18.8231 5.4524C18.8231 3.64235 20.2958 2.16912 22.1064 2.16912C22.9813 2.16912 23.8031 2.51151 24.4257 3.13661C25.0472 3.75513 25.3891 4.57747 25.3891 5.45189V10.8431H18.8231V5.4524ZM26.789 31.5785C26.789 33.5701 25.1595 35.1996 23.1679 35.1996H20.8739C18.8823 35.1996 17.2528 33.5701 17.2528 31.5785V27.1629H26.789V31.5785Z" fill="black"/>
</svg>
