<svg width="24" height="24" viewBox="0 0 24 24" fill="none" xmlns="http://www.w3.org/2000/svg">
<path d="M5.63736 18.8347L5.16601 18.3633C4.90565 18.103 4.90558 17.6809 5.16593 17.4205L10.5871 11.9994L5.16593 6.57819C4.90565 6.3179 4.90565 5.89576 5.16601 5.6354L5.63736 5.16405C5.89772 4.90369 6.31986 4.90369 6.58015 5.16398L12.0013 10.5852L17.4225 5.164C17.6828 4.90365 18.105 4.90367 18.3653 5.16403L18.8367 5.63538C19.097 5.89574 19.097 6.31787 18.8367 6.57822L13.4155 11.9994L18.8367 17.4205C19.0971 17.6809 19.097 18.103 18.8367 18.3634L18.3653 18.8347C18.105 19.0951 17.6828 19.0951 17.4225 18.8347L12.0013 13.4136L6.58015 18.8348C6.31979 19.0951 5.89772 19.095 5.63736 18.8347Z" fill="#757575"/>
</svg>
