<svg width="48" height="48" viewBox="0 0 48 48" fill="#ccc" xmlns="http://www.w3.org/2000/svg">
    <path
        d="M41.3752 17.4275C38.4428 14.7032 35.1136 12.1916 31.2138 11.3366C28.2459 10.6866 25.1488 11.0517 22.2131 11.8042C20.5864 12.2207 18.9888 12.7576 17.501 13.5344C14.3579 15.1771 11.8359 17.8424 9.88846 20.8157C7.94105 23.789 6.52313 27.0775 5.16455 30.3626C5.06896 30.5961 4.96974 30.8439 5.00868 31.0913C5.06902 31.4617 5.40764 31.713 5.72477 31.9153C6.3604 32.3238 7.0187 32.6983 7.68449 33.0571C12.4423 36.6874 18.7971 38.0237 24.6926 37.0324C25.9417 36.8219 27.1815 36.5102 28.3351 35.9894C29.6784 35.3805 30.8763 34.4919 31.9996 33.538C36.3348 29.8646 39.7311 25.0884 41.7845 19.7726C41.9889 19.2444 42.1779 18.6476 41.9537 18.1301C41.8328 17.8461 41.602 17.631 41.3777 17.4223L41.3752 17.4275Z"
        fill="#2B1508" />
</svg>