<svg width="44" height="44" viewBox="0 0 44 44" fill="none" xmlns="http://www.w3.org/2000/svg">
<path d="M37.9279 15.9739C35.2399 13.4766 32.1881 11.1743 28.6133 10.3906C25.8928 9.79474 23.0537 10.1295 20.3626 10.8192C18.8715 11.201 17.407 11.6931 16.0433 12.4052C13.162 13.9111 10.8502 16.3542 9.06508 19.0798C7.27995 21.8053 5.98018 24.8197 4.73482 27.831C4.6472 28.0451 4.55624 28.2723 4.59194 28.4991C4.64726 28.8386 4.95765 29.069 5.24836 29.2544C5.83101 29.6289 6.43446 29.9721 7.04477 30.301C11.4061 33.6288 17.2313 34.8538 22.6355 33.9451C23.7806 33.7521 24.917 33.4664 25.9745 32.989C27.2058 32.4308 28.304 31.6162 29.3336 30.7419C33.3075 27.3746 36.4208 22.9964 38.3031 18.1236C38.4904 17.6394 38.6637 17.0923 38.4582 16.6179C38.3474 16.3576 38.1358 16.1604 37.9302 15.9692L37.9279 15.9739Z" fill="black"/>
</svg>
