<svg  width="1403" height="893" viewBox="0 0 1403 893" fill="none" xmlns="http://www.w3.org/2000/svg">
    <path d="M11.9604 473.563C78.8461 599.913 161.65 723.771 283.301 798.526C375.889 855.398 484.834 879.583 592.903 888.818C652.779 893.948 713.093 894.681 772.531 886.033C898.124 867.711 1014.81 807.614 1115.72 730.367C1216.63 653.12 1303.38 559.017 1388.08 464.328C1394.07 457.585 1400.35 450.403 1401.96 441.608C1404.29 428.416 1395.82 415.957 1387.5 405.403C1370.85 384.15 1353.03 363.775 1334.78 343.841C1216.93 165.455 1018.02 45.5547 807.142 9.49648C762.454 1.87443 716.89 -2.23019 671.764 1.72742C619.19 6.41791 568.222 22.2484 519.007 41.1569C329.156 113.86 157.999 234.787 25.8342 389.72C12.6907 405.111 -0.745287 422.993 0.7151 443.074C1.44529 454.067 6.70283 464.035 11.8142 473.709L11.9604 473.563Z" fill="#EAE2DB"/>
</svg>
