<svg width="1281" height="213" viewBox="0 0 1281 213" fill="none" xmlns="http://www.w3.org/2000/svg">
<path d="M4.97881 63.1317C3.78245 54.0822 3.16891 46.5053 3.16891 40.4621C3.16891 24.1424 8.90533 19.0195 27.9245 19.0195H67.1898C87.7428 19.0195 90.4423 22.3325 90.4423 47.7323V146.816C90.4423 191.235 68.9997 212.064 32.7406 212.064C17.9241 212.064 8.26115 209.027 0.714844 204.824L4.94813 164.332C8.5679 165.528 16.421 167.062 21.2678 167.062C32.1271 167.062 38.7838 162.215 38.7838 146.816V62.2421L4.94813 63.1317H4.97881Z" fill="#EAE2DB"/>
<path d="M236.061 205.439C229.711 208.752 220.048 212.096 208.882 212.096C196.182 212.096 190.752 208.169 187.746 195.469C182.01 202.126 167.193 212.096 149.677 212.096C125.198 212.096 111.915 196.696 111.915 167.401V57.7338C117.651 56.8442 127.008 55.6172 135.167 55.6172C154.187 55.6172 162.04 58.6541 162.04 78.8696V155.59C162.04 165.253 164.77 168.597 171.396 168.597C178.022 168.597 184.679 164.057 186.488 162.247V56.8136H236.03V205.439H236.061Z" fill="#EAE2DB"/>
<path d="M312.783 54.082C326.986 54.082 340.269 56.5054 350.239 59.8185C350.852 63.4382 350.852 67.058 350.852 70.0949C350.546 87.9177 344.809 97.2739 335.453 97.2739C329.103 97.2739 321.557 93.6541 309.164 93.6541C303.734 93.6541 300.084 94.2676 297.998 94.8505C297.384 96.0468 297.077 97.8874 297.077 99.3906C297.077 104.82 301.617 106.63 319.133 111.477C344.809 117.827 354.472 132.306 354.472 157.706C354.472 191.541 331.803 212.094 295.881 212.094C277.445 212.094 264.775 208.168 255.112 203.321C253.885 199.701 253.609 195.161 253.609 190.928C253.916 178.841 258.149 167.062 265.696 167.062C271.739 167.062 278.089 172.185 295.912 172.185C303.151 172.185 306.771 171.295 309.194 170.375C309.808 169.455 310.115 167.338 310.115 165.252C310.115 158.902 302.875 158.595 287.752 153.472C263.886 145.313 253.609 128.993 253.609 106.354C253.609 74.9417 273.856 54.082 312.814 54.082H312.783Z" fill="#EAE2DB"/>
<path d="M359.319 59.8199H377.756V46.5372C377.756 27.8248 391.038 20.2478 424.874 22.978V59.8199H451.746V97.8888H424.874V162.247C424.874 170.1 428.801 173.107 435.15 173.107C441.5 173.107 446.317 171.91 449.66 170.376L453.587 202.709C444.813 208.139 430.334 211.758 414.321 211.758C388.646 211.758 374.749 198.476 374.749 169.456V97.8582H359.35V59.7892L359.319 59.8199Z" fill="#EAE2DB"/>
<path d="M560.72 209.059H509.338V22.7943C516.854 20.4016 528.848 18.8984 537.56 18.8984C558.604 18.8984 560.69 23.1011 560.69 49.5438V209.059H560.72ZM650.846 20.1255L612.409 109.638L652.963 209.059H592.869L561.027 116.233L592.562 20.0948H650.846V20.1255Z" fill="#EAE2DB"/>
<path d="M692.599 0C708.213 0 714.839 7.51563 714.839 23.4365C714.839 37.2407 706.433 46.873 683.887 46.873C667.352 46.873 661.646 36.6579 661.646 22.8537C661.646 9.04947 670.052 0.030706 692.599 0.030706V0ZM663.456 209.057V62.1497C670.082 59.4502 680.267 57.6403 689.592 57.6403C709.409 57.6403 713.612 63.346 713.612 82.2732V209.057H663.456Z" fill="#EAE2DB"/>
<path d="M784.531 69.6944C789.347 64.5715 802.844 54.9699 819.072 54.9699C847.601 54.9699 864.135 75.4002 864.135 133.071C864.135 183.84 842.508 212.093 812.753 212.093C798.949 212.093 786.617 204.884 781.525 197.368C774.622 208.473 766.493 212.093 751.769 212.093C746.646 212.093 738.854 211.203 735.234 210.283V8.40368C738.854 7.51408 748.763 4.50781 759.867 4.50781C779.991 4.50781 784.5 9.0172 784.5 28.5272V69.6944H784.531ZM798.059 95.2169C792.353 95.2169 786.647 98.2232 784.838 99.1128V168.809C786.034 170.005 792.046 173.901 797.445 173.901C801.955 173.901 805.851 172.705 806.74 171.784C810.636 163.962 812.139 146.845 812.139 136.047C812.139 103.315 808.826 95.1862 798.028 95.1862L798.059 95.2169Z" fill="#EAE2DB"/>
<path d="M929.937 69.6944C934.753 64.5715 948.251 54.9699 964.478 54.9699C993.007 54.9699 1009.54 75.4002 1009.54 133.071C1009.54 183.84 987.915 212.093 958.159 212.093C944.355 212.093 932.023 204.884 926.931 197.368C920.029 208.473 911.9 212.093 897.175 212.093C892.052 212.093 884.26 211.203 880.641 210.283V8.40368C884.26 7.51408 894.169 4.50781 905.273 4.50781C925.397 4.50781 929.906 9.0172 929.906 28.5272V69.6944H929.937ZM943.465 95.2169C937.759 95.2169 932.054 98.2232 930.244 99.1128V168.809C931.44 170.005 937.453 173.901 942.852 173.901C947.361 173.901 951.257 172.705 952.146 171.784C956.042 163.962 957.545 146.845 957.545 136.047C957.545 103.315 954.232 95.1862 943.434 95.1862L943.465 95.2169Z" fill="#EAE2DB"/>
<path d="M1084.94 54.9721C1126.39 54.9721 1139.91 81.7216 1139.91 126.478C1139.91 134.3 1139.61 142.706 1138.72 151.724H1072.33C1073.22 165.529 1079.85 172.737 1093.07 172.737C1108.38 172.737 1118.01 167.921 1123.72 167.921C1132.74 167.921 1136.32 176.327 1136.02 200.959C1125.5 206.972 1108.07 212.064 1083.75 212.064C1036.87 212.064 1020.37 179.916 1020.37 133.656C1020.37 87.3967 1041.69 54.9414 1084.97 54.9414L1084.94 54.9721ZM1084.33 93.4092C1080.13 93.4092 1076.81 95.5258 1075.92 95.8019C1074.11 100.311 1072.03 110.22 1072.03 122.827L1095.46 120.711C1096.08 105.986 1093.96 93.3785 1084.36 93.3785L1084.33 93.4092Z" fill="#EAE2DB"/>
<path d="M1157.03 8.71251C1157.03 8.71251 1169.64 4.20312 1183.17 4.20312C1202.98 4.20312 1207.19 9.01924 1207.19 28.5292V69.3897C1214.4 62.7944 1227.31 54.972 1244.15 54.972C1268.78 54.972 1280.5 68.7762 1280.5 95.8324V209.088H1230.93V108.747C1230.93 102.152 1228.23 97.6423 1221.33 97.6423C1214.43 97.6423 1209 100.649 1207.22 102.765V209.119H1157.06V8.74317L1157.03 8.71251Z" fill="#EAE2DB"/>
</svg>
