<svg width="24" height="24" viewBox="0 0 24 24" fill="none" xmlns="http://www.w3.org/2000/svg">
<path d="M12.3339 21.3346L11.6673 21.3346C11.2991 21.3346 11.0006 21.0362 11.0006 20.668L11.0006 13.0013L3.33394 13.0013C2.96584 13.0013 2.66734 12.7028 2.66734 12.3346L2.66734 11.668C2.66734 11.2998 2.96584 11.0013 3.33394 11.0013L11.0006 11.0013L11.0006 3.33464C11.0006 2.96645 11.2991 2.66797 11.6673 2.66797L12.3339 2.66797C12.7021 2.66797 13.0006 2.96645 13.0006 3.33464L13.0006 11.0013L20.6673 11.0013C21.0355 11.0013 21.334 11.2998 21.334 11.668L21.334 12.3346C21.334 12.7028 21.0355 13.0013 20.6673 13.0013L13.0006 13.0013L13.0006 20.668C13.0006 21.0362 12.7021 21.3346 12.3339 21.3346Z" fill="#9F7052"/>
</svg>
